# xmcd CD database file
#
# Track frame offsets:
#	150
#	16729
#	29180
#	50843
#	62334
#	74654
#	89066
#	104630
#	119193
#	136187
#	161665
#	183808
#	206811
#	229938
#	247869
#	269851
#	287073
#	307717
#	329108
#
# Disc length: 4622 seconds
#
# Revision: 0
# Processed by: cddbd v1.5.2PL0 Copyright (c) Steve Scherf et al.
# Submitted via: CDex 1.51
#
DISCID=2e120c13
DTITLE=Emmylou Harris - Songbird: Rare Tracks And Forgotten Gems [CD2)
DYEAR=2007
DGENRE=Country
TTITLE0=The Sweetheart Of The Rodeo (with Dolly Parton, Linda Ronstadt, Vince Gill and Gail Davies)
TTITLE1=When I Was Yours
TTITLE2=My Father's House
TTITLE3=Bright Morning Stars
TTITLE4=When He Calls
TTITLE5=Lonely Street
TTITLE6=Brand New Dance
TTITLE7=Get Up John
TTITLE8=If I Could Be There
TTITLE9=Ballad Of A Runaway Horse
TTITLE10=Going Back To Harlan
TTITLE11=Sweet Old World
TTITLE12=All My Tears (Live)
TTITLE13=Prayer In Open D (Live)
TTITLE14=Bang The Drum Slowly
TTITLE15=Boy From Tupelo
TTITLE16=Lost Unto This World
TTITLE17=Man Is An Island
TTITLE18=Cup Of Kindness
EXTD=YEAR: 2007
EXTT0=
EXTT1=
EXTT2=
EXTT3=
EXTT4=
EXTT5=
EXTT6=
EXTT7=
EXTT8=
EXTT9=
EXTT10=
EXTT11=
EXTT12=
EXTT13=
EXTT14=
EXTT15=
EXTT16=
EXTT17=
EXTT18=
PLAYORDER=
